<?xml version="1.0"?><svg id="Layer_1" style="enable-background:new 0 0 64 64;" version="1.1" viewBox="0 0 64 64" xml:space="preserve" xmlns="http://www.w3.org/2000/svg" xmlns:xlink="http://www.w3.org/1999/xlink"><style type="text/css">
	.st0{fill:url(#SVGID_1_);}
	.st1{fill:url(#SVGID_2_);}
	.st2{fill:url(#SVGID_3_);}
	.st3{fill:url(#SVGID_4_);}
	.st4{fill:url(#SVGID_5_);}
	.st5{fill:#FFFFFF;}
	.st6{fill:url(#SVGID_6_);}
	.st7{fill:url(#SVGID_7_);}
	.st8{fill:url(#SVGID_8_);}
	.st9{fill:url(#SVGID_9_);}
	.st10{fill:url(#SVGID_10_);}
	.st11{fill:#FFBF0B;}
	.st12{fill:#1A1A54;}
	.st13{fill:#DC2863;}
	.st14{fill:none;stroke:#1A1A54;stroke-width:3;stroke-linecap:round;stroke-linejoin:round;stroke-miterlimit:10;}
	.st15{fill:#0B85FF;}
	.st16{opacity:0.5;fill:#FFFFFF;}
	.st17{fill:#00AF64;}
	.st18{fill:#00D17C;}
	.st19{fill:none;stroke:#00D17C;stroke-width:3;stroke-linecap:round;stroke-linejoin:round;stroke-miterlimit:10;}
	.st20{fill:#8C5C3B;}
	.st21{opacity:0.1;fill:#1A1A54;}
	.st22{opacity:0.2;fill:#1A1A54;}
	.st23{fill:none;stroke:#FFFFFF;stroke-width:2;stroke-linecap:round;stroke-miterlimit:10;}
	.st24{fill:#E86942;}
	.st25{fill:#6642AD;}
	.st26{fill:url(#SVGID_11_);}
	.st27{fill:url(#SVGID_12_);}
	.st28{fill:url(#SVGID_13_);}
	.st29{opacity:0.2;}
	.st30{fill:none;stroke:#1A1A54;stroke-width:2;stroke-miterlimit:10;}
	.st31{fill:#E8E8EE;}
	.st32{fill:#D1D1DC;}
	.st33{fill:none;stroke:#D1D1DC;stroke-width:1.8172;stroke-linecap:round;stroke-miterlimit:10;}
	.st34{opacity:0.5;fill:#E8E8EE;}
	.st35{fill:none;stroke:#E8E8EE;stroke-width:7.1126;stroke-linecap:round;stroke-linejoin:round;stroke-miterlimit:10;}
	.st36{fill:none;stroke:#D1D1DC;stroke-width:2.3709;stroke-linecap:round;stroke-miterlimit:10;}
	.st37{fill:#F2AD00;}
	.st38{fill:none;stroke:#E8E8EE;stroke-width:5;stroke-linecap:round;stroke-linejoin:round;stroke-miterlimit:10;}
	.st39{fill:none;stroke:#FFFFFF;stroke-width:4;stroke-linecap:square;stroke-miterlimit:10;}
</style><path class="st11" d="M64,32c0,12-6.7,22.5-16.5,28c-4.6,2.5-9.9,3-15.5,3c-5.5,0-10.7-0.4-15.3-2.9C6.8,54.7,0,44.2,0,32  C0,14.3,14.3,0,32,0S64,14.3,64,32z"/><circle class="st5" cx="44.5" cy="30.5" r="8.5"/><circle class="st12" cx="44.5" cy="33.5" r="4.5"/><circle class="st5" cx="19.5" cy="30.5" r="8.5"/><circle class="st12" cx="19.5" cy="33.5" r="4.5"/><path class="st5" d="M32,61H5v-5.8h15.7c3.4,0,6.8,0.8,9.9,2.5l0,0C31.5,58.1,32,59,32,60V61z"/><path class="st5" d="M32,61h27v-5.8H43.2c-3.4,0-6.8,0.8-9.9,2.5l0,0C32.5,58.1,32,59,32,60V61z"/><path class="st32" d="M50.3,58.7c0.2-1.4,0.7-2.4,1.3-3.4H59V61h-8.6C50.2,60.4,50.1,60,50.3,58.7z"/><path class="st32" d="M13.8,58.7c-0.2-1.4-0.7-2.4-1.3-3.4H5V61h8.6C13.9,60.4,14,60,13.8,58.7z"/><rect class="st15" height="3" width="26" x="34" y="60"/><rect class="st15" height="3" width="26" x="4" y="60"/><path class="st15" d="M34,63c-1.3,0.7-2.7,0.7-4,0v-3c1.3,0.7,2.7,0.7,4,0V63z"/><path class="st22" d="M34,63c-1.3,0.7-2.7,0.7-4,0v-3c1.3,0.7,2.7,0.7,4,0V63z"/><path class="st12" d="M32,52L32,52c-4.4,0-8-3.6-8-8v0c0-1.1,0.9-2,2-2h12c1.1,0,2,0.9,2,2v0C40,48.4,36.4,52,32,52z"/><path class="st13" d="M32,52c2.7,0,5.1-1.3,6.5-3.4c-1.5-2-3.8-3.3-6.5-3.3s-5,1.3-6.5,3.3C26.9,50.7,29.3,52,32,52z"/><path class="st22" d="M14,60H4v3h9.1C13.6,62.2,14,61.2,14,60z"/><path class="st31" d="M12,57.8c0,3.8-3.1,6-7,6s-5-2.1-5-6s1.1-7,5-7S12,54,12,57.8z"/><path class="st22" d="M50.1,60h10v3H51C50.4,62.2,50.1,61.2,50.1,60z"/><path class="st31" d="M52.1,57.8c0,3.8,3.1,6,7,6s5-2.1,5-6s-1.1-7-5-7S52.1,54,52.1,57.8z"/></svg>